<svg xmlns="http://www.w3.org/2000/svg" viewBox="0 0 1331.17 1343.14"><defs><style>.cls-1{fill:#78cab7;}</style></defs><g id="Layer_2" data-name="Layer 2"><g id="Layer_5" data-name="Layer 5"><line class="cls-1" x1="132.41" y1="237.11" x2="404.72" y2="239.78"/><path class="cls-1" d="M404.73,278.77h-.31L132.1,276.09c-19.33-.19-34.86-17.8-34.69-39.33s15.81-38.64,35-38.64h.32L405,200.8c19.33.19,34.86,17.8,34.69,39.33S423.92,278.77,404.73,278.77Z" transform="translate(0 0)"/><line class="cls-1" x1="266.18" y1="94.78" x2="263.68" y2="378.39"/><path class="cls-1" d="M263.69,417.37h-.35A39,39,0,0,1,224.7,378l2.5-283.61a39,39,0,0,1,39-38.64h.35a39,39,0,0,1,38.65,39.33l-2.51,283.61A39,39,0,0,1,263.69,417.37Z" transform="translate(0 0)"/><path class="cls-1" d="M141.05,1331.41l-120.4-63.82c.39-.85,9.14-19.17,27.67-46.72L544,398.22A68.24,68.24,0,0,1,660.9,468.66L350.17,984.33c98.24-36,221.34-53.32,373-30.09,25.31,3.11,203.13,31.23,551.62,236a68.23,68.23,0,0,1-69.12,117.67C868.14,1109.6,708.55,1089.91,707,1089.73l-3.48-.44C386.8,1040.4,230,1199,171.78,1280.41Z" transform="translate(0 0)"/><path class="cls-1" d="M160.53,1343.14,0,1258.05c2.33-5,13.74-28.78,36.49-61.61l488-810A91,91,0,0,1,680.38,480.4L400.87,944.28c89.18-23.27,196.93-32.13,324.9-12.65,31.68,3.69,209.29,32.63,560.5,238.95a91,91,0,0,1-92.18,156.89c-331.34-194.65-488.16-215-489.7-215.13l-4.35-.56c-304.37-47-454.51,104.94-509.65,181.81Z" transform="translate(0 0)"/><path class="cls-1" d="M1235.8,897.31l15,185.35c-40.83-19.76-139.68-77-184.57-96.2L626,132.15A90.94,90.94,0,1,1,788.24,49.94Z" transform="translate(0 0)"/></g></g></svg>