<svg xmlns="http://www.w3.org/2000/svg" width="261.37" height="244.901" viewBox="0 0 261.37 244.901">
  <g id="Group_1480" data-name="Group 1480" transform="translate(-231.758 -32.558)">
    <g id="Group_1442" data-name="Group 1442" transform="translate(231.758 82.222)">
      <path id="Path_1160" data-name="Path 1160" d="M459.534,178.048H231.758V64.16a20.941,20.941,0,0,1,20.918-20.918H438.615A20.944,20.944,0,0,1,459.534,64.16ZM236.406,173.4H454.885V64.16a16.294,16.294,0,0,0-16.27-16.27H252.676a16.291,16.291,0,0,0-16.27,16.27Z" transform="translate(-231.758 -43.242)" fill="#8695a8"/>
    </g>
    <g id="Group_1457" data-name="Group 1457" transform="translate(261.971 33.415)">
      <g id="Group_1443" data-name="Group 1443">
        <rect id="Rectangle_917" data-name="Rectangle 917" width="167.345" height="88.321" fill="#fff"/>
      </g>
      <g id="Group_1444" data-name="Group 1444" transform="translate(6.974 51.132)">
        <rect id="Rectangle_918" data-name="Rectangle 918" width="4.648" height="120.863" fill="#8695a8"/>
      </g>
      <g id="Group_1445" data-name="Group 1445" transform="translate(148.752 11.62)">
        <path id="Path_1161" data-name="Path 1161" d="M281.879,195.617h-4.648V39.891h-6.973V35.242h11.621Z" transform="translate(-270.258 -35.242)" fill="#8695a8"/>
      </g>
      <g id="Group_1454" data-name="Group 1454" transform="translate(41.837 104.592)">
        <g id="Group_1448" data-name="Group 1448" transform="translate(0 18.594)">
          <g id="Group_1446" data-name="Group 1446">
            <rect id="Rectangle_919" data-name="Rectangle 919" width="46.485" height="4.648" fill="#8695a8"/>
          </g>
          <g id="Group_1447" data-name="Group 1447" transform="translate(55.782)">
            <rect id="Rectangle_920" data-name="Rectangle 920" width="18.594" height="4.648" fill="#8695a8"/>
          </g>
        </g>
        <g id="Group_1450" data-name="Group 1450" transform="translate(0 37.188)">
          <g id="Group_1449" data-name="Group 1449">
            <rect id="Rectangle_921" data-name="Rectangle 921" width="18.594" height="4.648" fill="#8695a8"/>
          </g>
        </g>
        <g id="Group_1453" data-name="Group 1453">
          <g id="Group_1451" data-name="Group 1451" transform="translate(27.891)">
            <rect id="Rectangle_922" data-name="Rectangle 922" width="27.891" height="4.648" fill="#8695a8"/>
          </g>
          <g id="Group_1452" data-name="Group 1452">
            <rect id="Rectangle_923" data-name="Rectangle 923" width="18.594" height="4.648" fill="#8695a8"/>
          </g>
        </g>
      </g>
      <g id="Group_1455" data-name="Group 1455" transform="translate(7.653 11.619)">
        <path id="Path_1162" data-name="Path 1162" d="M243.19,76.4,239.9,73.113l37.188-37.188a2.325,2.325,0,0,1,1.645-.683h51.133V39.89H279.7Z" transform="translate(-239.904 -35.242)" fill="#8695a8"/>
      </g>
      <g id="Group_1456" data-name="Group 1456" transform="translate(6.976 11.621)">
        <path id="Path_1163" data-name="Path 1163" d="M279.269,77.077H242.081a2.323,2.323,0,0,1-1.645-3.965l37.188-37.188a2.324,2.324,0,0,1,3.97,1.641V74.753A2.322,2.322,0,0,1,279.269,77.077Zm-31.577-4.648h29.253V43.176Z" transform="translate(-239.758 -35.242)" fill="#8695a8"/>
      </g>
    </g>
    <g id="Group_1458" data-name="Group 1458" transform="translate(302.847 254.216)">
      <path id="Path_1164" data-name="Path 1164" d="M332.648,103.484h-85.6l23.242-23.242h39.112Zm-74.376-4.648h63.154L307.481,84.89H272.218Z" transform="translate(-247.051 -80.242)" fill="#8695a8"/>
    </g>
    <g id="Group_1459" data-name="Group 1459" transform="translate(289.863 272.811)">
      <rect id="Rectangle_924" data-name="Rectangle 924" width="111.564" height="4.648" fill="#8695a8"/>
    </g>
    <g id="Group_1460" data-name="Group 1460" transform="translate(289.862 242.596)">
      <rect id="Rectangle_925" data-name="Rectangle 925" width="111.564" height="18.594" fill="#fff"/>
    </g>
    <g id="Group_1461" data-name="Group 1461" transform="translate(231.758 212.38)">
      <path id="Path_1165" data-name="Path 1165" d="M232.258,71.742V90.336a18.589,18.589,0,0,0,18.594,18.594H436.791a18.592,18.592,0,0,0,18.594-18.594V71.742Z" transform="translate(-229.934 -69.418)" fill="#fff"/>
      <path id="Path_1166" data-name="Path 1166" d="M438.615,113.078H252.676A20.938,20.938,0,0,1,231.758,92.16V71.242H459.534V92.16A20.941,20.941,0,0,1,438.615,113.078ZM236.406,75.89V92.16a16.288,16.288,0,0,0,16.27,16.27H438.615a16.291,16.291,0,0,0,16.27-16.27V75.89Z" transform="translate(-231.758 -71.242)" fill="#8695a8"/>
    </g>
    <g id="Group_1462" data-name="Group 1462" transform="translate(327.342 230.974)">
      <rect id="Rectangle_926" data-name="Rectangle 926" width="36.897" height="4.648" fill="#8695a8"/>
    </g>
    <g id="Group_1472" data-name="Group 1472" transform="translate(329.371 32.558)">
      <g id="Group_1463" data-name="Group 1463" transform="translate(30.215 54.303)">
        <path id="Path_1167" data-name="Path 1167" d="M284.824,95.373A25.567,25.567,0,1,1,310.39,69.807,25.6,25.6,0,0,1,284.824,95.373Zm0-46.485a20.918,20.918,0,1,0,20.918,20.918A20.938,20.938,0,0,0,284.824,48.888Z" transform="translate(-259.257 -44.24)" fill="#78cab7"/>
      </g>
      <g id="Group_1464" data-name="Group 1464" transform="translate(0 33.385)">
        <path id="Path_1168" data-name="Path 1168" d="M271.351,76.928a18.594,18.594,0,1,1,18.594-18.594A18.616,18.616,0,0,1,271.351,76.928Zm0-32.539A13.945,13.945,0,1,0,285.3,58.334,13.959,13.959,0,0,0,271.351,44.388Z" transform="translate(-252.757 -39.74)" fill="#78cab7"/>
      </g>
      <g id="Group_1469" data-name="Group 1469" transform="translate(40.991)">
        <g id="Group_1465" data-name="Group 1465" transform="translate(0 0)">
          <rect id="Rectangle_927" data-name="Rectangle 927" width="4.648" height="9.296" transform="translate(0 3.287) rotate(-45)" fill="#78cab7"/>
        </g>
        <g id="Group_1466" data-name="Group 1466" transform="translate(19.724 19.722)">
          <rect id="Rectangle_928" data-name="Rectangle 928" width="4.648" height="9.296" transform="translate(0 3.287) rotate(-45)" fill="#78cab7"/>
        </g>
        <g id="Group_1467" data-name="Group 1467" transform="translate(19.724)">
          <rect id="Rectangle_929" data-name="Rectangle 929" width="9.296" height="4.648" transform="translate(0 6.573) rotate(-45)" fill="#78cab7"/>
        </g>
        <g id="Group_1468" data-name="Group 1468" transform="translate(0 19.722)">
          <rect id="Rectangle_930" data-name="Rectangle 930" width="9.296" height="4.648" transform="translate(0 6.573) rotate(-45)" fill="#78cab7"/>
        </g>
      </g>
      <g id="Group_1470" data-name="Group 1470" transform="translate(44.161 68.249)">
        <path id="Path_1169" data-name="Path 1169" d="M273.878,70.482A11.621,11.621,0,1,1,285.5,58.861,11.634,11.634,0,0,1,273.878,70.482Zm0-18.594a6.973,6.973,0,1,0,6.973,6.973A6.981,6.981,0,0,0,273.878,51.888Z" transform="translate(-262.257 -47.24)" fill="#78cab7"/>
      </g>
      <g id="Group_1471" data-name="Group 1471" transform="translate(11.621 45.006)">
        <path id="Path_1170" data-name="Path 1170" d="M262.23,56.185a6.973,6.973,0,1,1,6.973-6.973A6.981,6.981,0,0,1,262.23,56.185Zm0-9.3a2.324,2.324,0,1,0,2.324,2.324A2.325,2.325,0,0,0,262.23,46.888Z" transform="translate(-255.257 -42.24)" fill="#78cab7"/>
      </g>
    </g>
    <g id="Group_1479" data-name="Group 1479" transform="translate(331.699 78.838)">
      <g id="Group_1473" data-name="Group 1473" transform="translate(50.805)">
        <path id="Path_1171" data-name="Path 1171" d="M268.8,153.139a4.659,4.659,0,0,1-3.747-1.971,4.523,4.523,0,0,1-.614-4.165l10.208-30.62,73.865-73.869,26.3,26.3-73.864,73.864-30.624,10.208A4.844,4.844,0,0,1,268.8,153.139Z" transform="translate(-264.187 -42.514)" fill="#fff"/>
      </g>
      <g id="Group_1474" data-name="Group 1474" transform="translate(0 96.357)">
        <rect id="Rectangle_931" data-name="Rectangle 931" width="62.818" height="4.648" fill="#8695a8"/>
      </g>
      <g id="Group_1475" data-name="Group 1475" transform="translate(60.493 10.854)">
        <path id="Path_1172" data-name="Path 1172" d="M268.594,134.932a2.323,2.323,0,0,1-2.2-3.059l6.578-19.723a2.277,2.277,0,0,1,.562-.906L339.27,45.5a2.388,2.388,0,0,1,3.287,0L355.7,58.65a2.326,2.326,0,0,1,0,3.286l-65.739,65.739a2.365,2.365,0,0,1-.906.562l-19.724,6.573A2.259,2.259,0,0,1,268.594,134.932Zm8.609-20.793-4.932,14.8L287.063,124,350.77,60.291l-9.859-9.859Z" transform="translate(-266.271 -44.849)" fill="#78cab7"/>
      </g>
      <g id="Group_1476" data-name="Group 1476" transform="translate(67.753 77.248)">
        <rect id="Rectangle_932" data-name="Rectangle 932" width="4.648" height="18.592" transform="translate(0 3.287) rotate(-45)" fill="#78cab7"/>
      </g>
      <g id="Group_1477" data-name="Group 1477" transform="translate(74.325 18.082)">
        <rect id="Rectangle_933" data-name="Rectangle 933" width="92.968" height="4.648" transform="translate(0 65.738) rotate(-45)" fill="#78cab7"/>
      </g>
      <g id="Group_1478" data-name="Group 1478" transform="translate(64.462 87.107)">
        <rect id="Rectangle_934" data-name="Rectangle 934" width="4.648" height="9.299" transform="translate(0 3.288) rotate(-45.02)" fill="#78cab7"/>
      </g>
    </g>
  </g>
</svg>
