<svg id="Group_1572" data-name="Group 1572" xmlns="http://www.w3.org/2000/svg" width="59.977" height="66.745" viewBox="0 0 59.977 66.745">
  <path id="Path_1162" data-name="Path 1162" d="M621.9,139.794l-4.138-.041.039-4.306a1.6,1.6,0,0,0-1.588-1.616H616.2a1.6,1.6,0,0,0-1.6,1.589l-.037,4.3-3.848-.037h-.014a1.518,1.518,0,0,0-1.437,1.588,1.538,1.538,0,0,0,1.43,1.616l3.841.037-.036,4.15v0a1.6,1.6,0,0,0,1.588,1.615h.014a1.6,1.6,0,0,0,1.6-1.59l.037-4.146,4.14.041h.017a1.517,1.517,0,0,0,1.439-1.588A1.537,1.537,0,0,0,621.9,139.794Z" transform="translate(-563.349 -131.657)" fill="#78cab7"/>
  <path id="Path_1163" data-name="Path 1163" d="M603.606,134.52l-.005-.01a4.18,4.18,0,0,0-5.682-1.9,4.379,4.379,0,0,0-1.853,5.82L616.524,179.1c8.556,6.189,6.743,4.886,8.556,6.2l-.412-10.037Z" transform="translate(-567.264 -132.141)" fill="#78cab7"/>
  <path id="Path_1164" data-name="Path 1164" d="M603.589,174.119a39.7,39.7,0,0,0-14.058,2.552L606.922,150.4l-4.629-8.965L573.62,185.345l-.008,2.267-.034,8.5h.149a15.083,15.083,0,0,1,1.937-1.728,39.986,39.986,0,0,1,53.564-.2c.6.54,1.189,1.089,1.754,1.661l.387.376.044-10.836a.528.528,0,0,0-.066-.067A39.979,39.979,0,0,0,603.589,174.119Z" transform="translate(-573.579 -129.477)" fill="#78cab7"/>
</svg>
