<svg id="_3" data-name="#3" xmlns="http://www.w3.org/2000/svg" xmlns:xlink="http://www.w3.org/1999/xlink" width="33.831" height="33.831" viewBox="0 0 33.831 33.831">
  <defs>
    <clipPath id="clip-path">
      <path id="icon_Color" data-name="icon Color" d="M0,16.915A16.916,16.916,0,1,1,16.915,33.831,16.934,16.934,0,0,1,0,16.915Zm7.3-5.9v11.8a3.721,3.721,0,0,0,3.718,3.718h11.8a3.721,3.721,0,0,0,3.718-3.718v-11.8A3.721,3.721,0,0,0,22.817,7.3h-11.8A3.721,3.721,0,0,0,7.3,11.014ZM11.013,24.66a1.844,1.844,0,0,1-1.845-1.841V14.941h2.873a5.2,5.2,0,0,0-.388,1.973,5.262,5.262,0,1,0,10.524,0,5.2,5.2,0,0,0-.391-1.973H24.66v7.877a1.844,1.844,0,0,1-1.845,1.841Zm2.517-7.745a3.387,3.387,0,0,1,6.773,0,3.387,3.387,0,0,1-6.773,0Zm7.517-7.392,2.838-.01.423,0v3.261l-3.249.012Z" fill="#78cab7"/>
    </clipPath>
  </defs>
  <path id="icon_Color-2" data-name="icon Color" d="M0,16.915A16.916,16.916,0,1,1,16.915,33.831,16.934,16.934,0,0,1,0,16.915Zm7.3-5.9v11.8a3.721,3.721,0,0,0,3.718,3.718h11.8a3.721,3.721,0,0,0,3.718-3.718v-11.8A3.721,3.721,0,0,0,22.817,7.3h-11.8A3.721,3.721,0,0,0,7.3,11.014ZM11.013,24.66a1.844,1.844,0,0,1-1.845-1.841V14.941h2.873a5.2,5.2,0,0,0-.388,1.973,5.262,5.262,0,1,0,10.524,0,5.2,5.2,0,0,0-.391-1.973H24.66v7.877a1.844,1.844,0,0,1-1.845,1.841Zm2.517-7.745a3.387,3.387,0,0,1,6.773,0,3.387,3.387,0,0,1-6.773,0Zm7.517-7.392,2.838-.01.423,0v3.261l-3.249.012Z" transform="translate(0)" fill="#78cab7"/>
</svg>
