<svg xmlns="http://www.w3.org/2000/svg" width="66.843" height="64.381" viewBox="0 0 66.843 64.381">
  <g id="Group_1382" data-name="Group 1382" transform="translate(-1644.558 -9262.75)">
    <path id="Path_1015" data-name="Path 1015" d="M1738.523,9344.188h-3.653v-4.21a.532.532,0,0,0-.531-.532h-3.149v-28.877h1.457a.531.531,0,0,0,.531-.531v-3.389h4.5a.531.531,0,0,0,.18-1.031l-30.882-17.768a.534.534,0,0,0-.53,0l-30.953,17.807a.532.532,0,0,0,.265.992h5.076v3.389a.531.531,0,0,0,.531.531h1.456v28.877h-3.744a.532.532,0,0,0-.532.532v4.21H1674.9a.532.532,0,0,0-.531.532v4.749a.532.532,0,0,0,.531.533h63.622a.532.532,0,0,0,.531-.533v-4.749A.532.532,0,0,0,1738.523,9344.188Zm-8.4-4.742h-4.577v-28.877h4.577Zm-19.768,0v-28.877h1.456a.531.531,0,0,0,.531-.531v-3.389H1722.5v3.389a.531.531,0,0,0,.531.531h1.457v28.877Zm-20.832,0v-28.877h1.453a.531.531,0,0,0,.531-.531v-3.389h10.152v3.389a.531.531,0,0,0,.531.531h1.461v28.877Zm20.3-29.939h-7.1v-2.857h8.557v2.857Zm-5.109,1.063h4.577v28.877h-4.577Zm27.4-1.062h-8.552v-2.857h8.552Zm-25.4-20.582,28.96,16.662h-57.923Zm-24.814,17.725h8.553v2.857H1681.9Zm1.988,3.92h4.581v28.877h-4.581Zm-4.276,29.94h54.2v3.679h-54.2Zm58.382,8.429h-62.559v-3.686h3.6c.015,0,.028.008.044.008h55.26c.015,0,.028-.007.043-.008h3.609Z" transform="translate(-28.733 -23.951)" fill="#b73339"/>
    <path id="Path_1015_-_Outline" data-name="Path 1015 - Outline" d="M1737.6,9350.16H1673.98a1.613,1.613,0,0,1-1.61-1.611v-4.75a1.613,1.613,0,0,1,1.61-1.611h2.567v-3.131a1.613,1.613,0,0,1,1.611-1.611h2.665v-26.719h-.378a1.611,1.611,0,0,1-1.61-1.609v-2.311h-4a1.612,1.612,0,0,1-1.515-1.062h-.535l.464-.268a1.61,1.61,0,0,1,.783-1.676l30.952-17.807a1.61,1.61,0,0,1,1.607,0l30.822,17.732a1.619,1.619,0,0,1,.951,1.471,1.6,1.6,0,0,1-.026.288l.448.259h-.518a1.613,1.613,0,0,1-1.478,1.063h-3.457v2.311a1.611,1.611,0,0,1-1.61,1.609h-.378v26.719h2.07a1.613,1.613,0,0,1,1.61,1.611v3.131h2.574a1.613,1.613,0,0,1,1.61,1.611v4.75A1.613,1.613,0,0,1,1737.6,9350.16Zm-62.012-3.223h60.4v-1.528h-2.436a1.16,1.16,0,0,1-.138.009h-55.26a1.164,1.164,0,0,1-.138-.009h-2.429Zm4.177-4.75h52.041v-1.521h-52.041Zm45.942-4.742h2.419v-26.719h-2.419Zm-15.191,0h11.97v-26.719h-.378a1.611,1.611,0,0,1-1.61-1.609v-2.311h-7.995v2.311a1.611,1.611,0,0,1-1.61,1.609h-.377Zm-5.64,0h2.419v-26.719h-2.419Zm-15.192,0h11.971v-26.719h-.382a1.611,1.611,0,0,1-1.61-1.609v-2.311h-7.995v2.311a1.612,1.612,0,0,1-1.61,1.609h-.374Zm-5.643,0h2.423v-26.719h-2.423Zm39.678-29.939h6.395v-.7h-6.395Zm-20.835,0h6.4v-.7h-6.4Zm-20.831,0h6.4v-.7h-6.4Zm-1.189-3.92h49.846l-24.922-14.338Z" transform="translate(-27.812 -23.03)" fill="#b73339"/>
    <path id="Path_1016" data-name="Path 1016" d="M1730.879,9310.387a4.038,4.038,0,1,0-4.034-4.042A4.042,4.042,0,0,0,1730.879,9310.387Zm0-7.012a2.974,2.974,0,1,1-2.971,2.97A2.973,2.973,0,0,1,1730.879,9303.375Z" transform="translate(-52.9 -30.643)" fill="#b73339"/>
    <path id="Path_1016_-_Outline" data-name="Path 1016 - Outline" d="M1729.958,9310.544a5.116,5.116,0,1,1,5.111-5.12A5.122,5.122,0,0,1,1729.958,9310.544Zm0-7.011a1.895,1.895,0,1,0,1.89,1.891A1.893,1.893,0,0,0,1729.958,9303.533Z" transform="translate(-51.979 -29.723)" fill="#b73339"/>
  </g>
</svg>
