<svg xmlns="http://www.w3.org/2000/svg" width="281.718" height="241.3" viewBox="0 0 281.718 241.3">
  <g id="Group_1598" data-name="Group 1598" transform="translate(-292.688 -242.602)">
    <g id="Group_1480" data-name="Group 1480" transform="translate(114.872 206.442)">
      <g id="Group_1442" data-name="Group 1442" transform="translate(231.758 82.222)">
        <path id="Path_1160" data-name="Path 1160" d="M459.534,178.048H231.758V64.16a20.941,20.941,0,0,1,20.918-20.918H438.615A20.944,20.944,0,0,1,459.534,64.16ZM236.406,173.4H454.885V64.16a16.294,16.294,0,0,0-16.27-16.27H252.676a16.291,16.291,0,0,0-16.27,16.27Z" transform="translate(-231.758 -43.242)" fill="#8695a8"/>
      </g>
      <g id="Group_1458" data-name="Group 1458" transform="translate(302.847 254.216)">
        <path id="Path_1164" data-name="Path 1164" d="M332.648,103.484h-85.6l23.242-23.242h39.112Zm-74.376-4.648h63.154L307.481,84.89H272.218Z" transform="translate(-247.051 -80.242)" fill="#8695a8"/>
      </g>
      <g id="Group_1459" data-name="Group 1459" transform="translate(289.863 272.811)">
        <rect id="Rectangle_924" data-name="Rectangle 924" width="111.564" height="4.648" fill="#8695a8"/>
      </g>
      <g id="Group_1460" data-name="Group 1460" transform="translate(289.862 242.596)">
        <rect id="Rectangle_925" data-name="Rectangle 925" width="111.564" height="18.594" fill="#fff"/>
      </g>
      <g id="Group_1461" data-name="Group 1461" transform="translate(231.758 212.38)">
        <path id="Path_1165" data-name="Path 1165" d="M232.258,71.742V90.336a18.589,18.589,0,0,0,18.594,18.594H436.791a18.592,18.592,0,0,0,18.594-18.594V71.742Z" transform="translate(-229.934 -69.418)" fill="#fff"/>
        <path id="Path_1166" data-name="Path 1166" d="M438.615,113.078H252.676A20.938,20.938,0,0,1,231.758,92.16V71.242H459.534V92.16A20.941,20.941,0,0,1,438.615,113.078ZM236.406,75.89V92.16a16.288,16.288,0,0,0,16.27,16.27H438.615a16.291,16.291,0,0,0,16.27-16.27V75.89Z" transform="translate(-231.758 -71.242)" fill="#8695a8"/>
      </g>
      <g id="Group_1462" data-name="Group 1462" transform="translate(327.342 230.974)">
        <rect id="Rectangle_926" data-name="Rectangle 926" width="36.897" height="4.648" fill="#8695a8"/>
      </g>
      <g id="Group_1472" data-name="Group 1472" transform="matrix(0.017, 1, -1, 0.017, 248.378, 89.928)">
        <g id="Group_1464" data-name="Group 1464" transform="translate(0 33.385)">
          <path id="Path_1168" data-name="Path 1168" d="M271.351,76.928a18.594,18.594,0,1,1,18.594-18.594A18.616,18.616,0,0,1,271.351,76.928Zm0-32.539A13.945,13.945,0,1,0,285.3,58.334,13.959,13.959,0,0,0,271.351,44.388Z" transform="translate(-252.757 -39.74)" fill="#eab242"/>
        </g>
        <g id="Group_1469" data-name="Group 1469" transform="translate(-54.009 10)">
          <g id="Group_1465" data-name="Group 1465" transform="translate(0 0)">
            <rect id="Rectangle_927" data-name="Rectangle 927" width="4.648" height="9.296" transform="translate(0 3.287) rotate(-45)" fill="#eab242"/>
          </g>
          <g id="Group_1466" data-name="Group 1466" transform="translate(19.724 19.722)">
            <rect id="Rectangle_928" data-name="Rectangle 928" width="4.648" height="9.296" transform="translate(0 3.287) rotate(-45)" fill="#eab242"/>
          </g>
          <g id="Group_1467" data-name="Group 1467" transform="translate(19.724)">
            <rect id="Rectangle_929" data-name="Rectangle 929" width="9.296" height="4.648" transform="translate(0 6.573) rotate(-45)" fill="#eab242"/>
          </g>
          <g id="Group_1468" data-name="Group 1468" transform="translate(0 19.722)">
            <rect id="Rectangle_930" data-name="Rectangle 930" width="9.296" height="4.648" transform="translate(0 6.573) rotate(-45)" fill="#eab242"/>
          </g>
        </g>
        <g id="Group_1471" data-name="Group 1471" transform="translate(11.621 45.006)">
          <path id="Path_1170" data-name="Path 1170" d="M262.23,56.185a6.973,6.973,0,1,1,6.973-6.973A6.981,6.981,0,0,1,262.23,56.185Zm0-9.3a2.324,2.324,0,1,0,2.324,2.324A2.325,2.325,0,0,0,262.23,46.888Z" transform="translate(-255.257 -42.24)" fill="#eab242"/>
        </g>
      </g>
    </g>
    <g id="Group_1391" data-name="Group 1391" transform="translate(-2879.732 -8978.187)">
      <path id="Path_1107" data-name="Path 1107" d="M3324.064,9330.156a2.583,2.583,0,1,0-2.608-2.558A2.586,2.586,0,0,0,3324.064,9330.156Zm-.046-4a1.421,1.421,0,1,1-1.4,1.433A1.419,1.419,0,0,1,3324.019,9326.152Z" transform="translate(-1.984 -5.071)" fill="#8695a8"/>
      <path id="Path_1107_-_Outline" data-name="Path 1107 - Outline" d="M3323.863,9330.31a2.921,2.921,0,0,1-2.907-2.88,2.909,2.909,0,0,1,2.872-2.939h.034a2.91,2.91,0,0,1,.033,5.819Zm0-5.166h-.027a2.255,2.255,0,0,0-2.226,2.278,2.265,2.265,0,0,0,2.254,2.234h.025a2.256,2.256,0,0,0-.025-4.513Zm0,4a1.752,1.752,0,0,1-1.742-1.73,1.743,1.743,0,0,1,1.723-1.763h.02a1.747,1.747,0,0,1,.02,3.493Zm0-2.84h-.013a1.09,1.09,0,0,0-1.077,1.1,1.1,1.1,0,0,0,1.089,1.085h.013a1.093,1.093,0,0,0-.013-2.187Z" transform="translate(-1.81 -4.898)" fill="#8695a8"/>
      <path id="Path_1108" data-name="Path 1108" d="M3324.244,9345.854a2.579,2.579,0,1,0-2.608-2.551A2.582,2.582,0,0,0,3324.244,9345.854Zm-.046-4a1.416,1.416,0,1,1-1.4,1.432A1.417,1.417,0,0,1,3324.2,9341.858Z" transform="translate(-2.046 -10.514)" fill="#8695a8"/>
      <path id="Path_1108_-_Outline" data-name="Path 1108 - Outline" d="M3324.041,9346.007a2.906,2.906,0,0,1-.032-5.812h.034a2.9,2.9,0,0,1,2.076,4.936,2.882,2.882,0,0,1-2.044.876Zm0-5.157h-.027a2.253,2.253,0,0,0-2.226,2.275,2.261,2.261,0,0,0,2.251,2.229h.027a2.252,2.252,0,0,0-.025-4.5Zm0,3.994a1.743,1.743,0,0,1-.018-3.486h.02a1.743,1.743,0,0,1,.019,3.486Zm0-2.832h-.013a1.089,1.089,0,0,0,.011,2.178h.013a1.089,1.089,0,0,0-.011-2.178Z" transform="translate(-1.873 -10.341)" fill="#8695a8"/>
      <path id="Path_1109" data-name="Path 1109" d="M3324.423,9361.556a2.579,2.579,0,1,0-2.608-2.548A2.581,2.581,0,0,0,3324.423,9361.556Zm-.046-4a1.416,1.416,0,1,1-1.4,1.435A1.418,1.418,0,0,1,3324.378,9357.561Z" transform="translate(-2.108 -15.957)" fill="#8695a8"/>
      <path id="Path_1109_-_Outline" data-name="Path 1109 - Outline" d="M3324.219,9361.709a2.905,2.905,0,0,1-.032-5.811h.034a2.905,2.905,0,0,1,.032,5.811Zm0-5.157h-.026a2.252,2.252,0,0,0,.024,4.5h.026a2.252,2.252,0,0,0-.024-4.5Zm0,3.994a1.743,1.743,0,0,1-.019-3.485h.019a1.75,1.75,0,0,1,1.744,1.725,1.742,1.742,0,0,1-1.723,1.761Zm0-2.832h-.012a1.089,1.089,0,0,0,.011,2.179h.014a1.088,1.088,0,0,0,1.077-1.1A1.1,1.1,0,0,0,3324.22,9357.714Z" transform="translate(-1.935 -15.784)" fill="#8695a8"/>
      <path id="Path_1110" data-name="Path 1110" d="M3324.6,9377.246A2.578,2.578,0,1,0,3322,9374.7,2.581,2.581,0,0,0,3324.6,9377.246Zm-.046-3.992a1.418,1.418,0,0,1,1.432,1.4,1.4,1.4,0,0,1-1.4,1.432,1.415,1.415,0,1,1-.033-2.83Z" transform="translate(-2.171 -21.396)" fill="#8695a8"/>
      <path id="Path_1110_-_Outline" data-name="Path 1110 - Outline" d="M3324.4,9377.4a2.9,2.9,0,0,1-.033-5.809h.033a2.9,2.9,0,0,1,.033,5.809Zm0-5.155h-.026a2.251,2.251,0,0,0,.026,4.5h.026a2.251,2.251,0,0,0-.026-4.5Zm0,3.992a1.748,1.748,0,0,1-1.744-1.722,1.745,1.745,0,0,1,1.723-1.761h.02a1.748,1.748,0,0,1,1.742,1.721,1.723,1.723,0,0,1-1.722,1.762Zm0-2.828h-.013a1.086,1.086,0,0,0-1.076,1.1,1.093,1.093,0,0,0,1.09,1.076h.012a1.079,1.079,0,0,0,1.076-1.1A1.092,1.092,0,0,0,3324.4,9373.408Z" transform="translate(-1.997 -21.223)" fill="#8695a8"/>
      <path id="Path_1111" data-name="Path 1111" d="M3324.724,9387.793a2.579,2.579,0,1,0,2.608,2.551A2.583,2.583,0,0,0,3324.724,9387.793Zm.045,4a1.416,1.416,0,1,1,1.4-1.431A1.416,1.416,0,0,1,3324.77,9391.788Z" transform="translate(-2.233 -26.838)" fill="#8695a8"/>
      <path id="Path_1111_-_Outline" data-name="Path 1111 - Outline" d="M3324.58,9387.293a2.917,2.917,0,0,1,2.906,2.873,2.908,2.908,0,0,1-2.872,2.938h-.034a2.906,2.906,0,0,1-.033-5.812Zm0,5.158h.027a2.253,2.253,0,0,0-.026-4.5h-.026a2.253,2.253,0,0,0,.025,4.5Zm0-4a1.743,1.743,0,0,1,.02,3.485h-.02a1.743,1.743,0,0,1-.02-3.485Zm0,2.832h.013a1.089,1.089,0,0,0-.012-2.179h-.013a1.089,1.089,0,0,0,.012,2.179Z" transform="translate(-2.059 -26.665)" fill="#8695a8"/>
      <path id="Path_1112" data-name="Path 1112" d="M3344.817,9331.277l13.91-.158a.582.582,0,0,0-.014-1.163l-13.909.159a.581.581,0,1,0,.013,1.162Z" transform="translate(-9.877 -6.792)" fill="#8695a8"/>
      <path id="Path_1112_-_Outline" data-name="Path 1112 - Outline" d="M3344.636,9331.432a.908.908,0,0,1-.008-1.816l13.919-.159a.911.911,0,0,1,.908.9.909.909,0,0,1-.9.919Zm13.911-1.322h0l-13.909.16a.248.248,0,0,0-.179.076.254.254,0,0,0,.181.432h0l13.911-.158a.249.249,0,0,0,.179-.076.256.256,0,0,0-.182-.434Z" transform="translate(-9.703 -6.619)" fill="#8695a8"/>
      <path id="Path_1113" data-name="Path 1113" d="M3345.039,9350.623l13.909-.16a.581.581,0,1,0-.013-1.162l-13.91.159a.582.582,0,0,0,.014,1.163Z" transform="translate(-9.954 -13.497)" fill="#8695a8"/>
      <path id="Path_1113_-_Outline" data-name="Path 1113 - Outline" d="M3344.859,9350.776a.908.908,0,0,1-.011-1.816l13.921-.159a.908.908,0,0,1,.009,1.816Zm13.91-1.322h0l-13.91.159a.255.255,0,0,0,0,.51h0l13.909-.159a.255.255,0,0,0,0-.51Z" transform="translate(-9.78 -13.324)" fill="#8695a8"/>
      <path id="Path_1114" data-name="Path 1114" d="M3370.459,9387.809l-24.991.287a.581.581,0,0,0,.014,1.162l14.982-.172,10.009-.114a.582.582,0,0,0-.014-1.163Z" transform="translate(-10.107 -26.843)" fill="#8695a8"/>
      <path id="Path_1114_-_Outline" data-name="Path 1114 - Outline" d="M3370.292,9387.309a.911.911,0,0,1,.908.9.908.908,0,0,1-.9.917l-25,.286a.908.908,0,0,1-.01-1.816Zm-24.991,1.449h0l24.99-.286a.255.255,0,0,0,0-.51h0l-24.991.287a.25.25,0,0,0-.179.075.258.258,0,0,0-.073.183.255.255,0,0,0,.254.251Z" transform="translate(-9.934 -26.67)" fill="#8695a8"/>
      <path id="Path_1115" data-name="Path 1115" d="M3383.04,9313.06a3.613,3.613,0,0,0-5.1.161l-2.136,2.278-.009.007-.005.008-8.283,8.833-.136-11.913a.581.581,0,0,0-.588-.575l-44.679.511a4.93,4.93,0,0,0-4.869,4.979l.609,53.19a4.239,4.239,0,0,0,4.28,4.188l45.372-.52a.581.581,0,0,0,.575-.588l-.359-31.312,19.3-20.579a3.618,3.618,0,0,0-.164-5.1Zm-16.334,28.618,0,0-5.208,5.554-3.264-3.062,22.13-23.593,3.263,3.058Zm-12.885-.051,6.447,6.051-6.8,1.146Zm3.562,1.75-3.26-3.059,13.24-14.121,0,0,8.879-9.469,3.268,3.062Zm-35.276,30.186a3.073,3.073,0,0,1-3.1-3.037l-.609-53.189a3.766,3.766,0,0,1,3.72-3.8l4.462-.051.688,60.022Zm44.791-.512-38.471.44-.687-60.022,38.472-.441.144,12.545-13.478,14.373a.6.6,0,0,0-.114.186.463.463,0,0,0-.018.079.6.6,0,0,0-.024.106l-.42,8.627-16.565.189a.581.581,0,1,0,.014,1.162l17.082-.2a.079.079,0,0,0,.014,0c.005,0,.01,0,.015,0a.7.7,0,0,0,.09-.008l8.666-1.463a.646.646,0,0,0,.085-.029.556.556,0,0,0,.066-.022.577.577,0,0,0,.176-.123l4.616-4.923Zm19.263-52.117-1.742,1.857-7.38-6.915,1.745-1.86a2.508,2.508,0,0,1,3.458-.109l3.807,3.568A2.455,2.455,0,0,1,3386.162,9320.934Z" transform="translate(-0.52 -0.52)" fill="#eab242"/>
      <path id="Path_1115_-_Outline" data-name="Path 1115 - Outline" d="M3366.269,9310.358a1.567,1.567,0,0,1,1.56,1.543l.108,9.478,6.553-6.988.051-.08.083-.063,2.079-2.217a4.547,4.547,0,0,1,3.3-1.447h.054a4.566,4.566,0,0,1,3.14,1.242l3.805,3.567a4.6,4.6,0,0,1,.209,6.484l-19.031,20.292.354,30.918a1.564,1.564,0,0,1-1.543,1.58l-45.373.52h-.06a5.218,5.218,0,0,1-5.211-5.156l-.609-53.189a5.912,5.912,0,0,1,5.837-5.972Zm-1.417,14.312-.128-11.171-36.511.418.665,58.063,36.512-.418-.3-26.1-2.954,3.15a1.566,1.566,0,0,1-.463.331,2.28,2.28,0,0,1-.391.131l-.021,0-8.685,1.465c-.055.008-.107.014-.158.017l-.017,0h-.078l-17.1.2a1.561,1.561,0,0,1-.015-3.122l15.641-.179.375-7.713a1.238,1.238,0,0,1,.046-.27,1.151,1.151,0,0,1,.065-.227,1.573,1.573,0,0,1,.3-.485l0,0Zm19-3.784,1.072-1.144a1.472,1.472,0,0,0-.067-2.073l-3.807-3.567a1.439,1.439,0,0,0-1-.373,1.467,1.467,0,0,0-1.076.438l-1.074,1.145Zm-58.1,51.13-.665-58.063-3.482.04a2.786,2.786,0,0,0-2.751,2.813l.609,53.189a2.1,2.1,0,0,0,2.087,2.069h.025Zm51.854-52.7-1.837-1.722-20.782,22.163,1.831,1.719Zm4.111,3.852-1.833-1.718-20.79,22.164,1.834,1.72,4.588-4.892Zm-24.082,23.357-3.46-3.247-.188,3.862Z" fill="#8695a8"/>
    </g>
  </g>
</svg>
