<svg id="_2" data-name="#2" xmlns="http://www.w3.org/2000/svg" xmlns:xlink="http://www.w3.org/1999/xlink" width="33.824" height="33.824" viewBox="0 0 33.824 33.824">
  <defs>
    <clipPath id="clip-path">
      <path id="icon_Color" data-name="icon Color" d="M16.913,33.824A16.912,16.912,0,1,1,33.824,16.913,16.931,16.931,0,0,1,16.913,33.824ZM7.569,24.456v0a11.463,11.463,0,0,0,6.2,1.814,11.021,11.021,0,0,0,8.54-3.748,11.9,11.9,0,0,0,2.963-7.755c0-.15,0-.316-.012-.522a8.2,8.2,0,0,0,2.017-2.092,8.067,8.067,0,0,1-2.321.636,4.046,4.046,0,0,0,1.778-2.236,8.068,8.068,0,0,1-2.567.98A4.045,4.045,0,0,0,17.167,14.3a4,4,0,0,0,.105.921A11.507,11.507,0,0,1,8.939,11a4.05,4.05,0,0,0,1.251,5.4,4.044,4.044,0,0,1-1.831-.507v.052A4.052,4.052,0,0,0,11.6,19.9a4.055,4.055,0,0,1-1.825.07,4.038,4.038,0,0,0,3.776,2.806,8.157,8.157,0,0,1-5.984,1.674Z" transform="translate(0 0)" fill="#78cab7"/>
    </clipPath>
  </defs>
  <path id="icon_Color-2" data-name="icon Color" d="M16.913,33.824A16.912,16.912,0,1,1,33.824,16.913,16.931,16.931,0,0,1,16.913,33.824ZM7.569,24.456v0a11.463,11.463,0,0,0,6.2,1.814,11.021,11.021,0,0,0,8.54-3.748,11.9,11.9,0,0,0,2.963-7.755c0-.15,0-.316-.012-.522a8.2,8.2,0,0,0,2.017-2.092,8.067,8.067,0,0,1-2.321.636,4.046,4.046,0,0,0,1.778-2.236,8.068,8.068,0,0,1-2.567.98A4.045,4.045,0,0,0,17.167,14.3a4,4,0,0,0,.105.921A11.507,11.507,0,0,1,8.939,11a4.05,4.05,0,0,0,1.251,5.4,4.044,4.044,0,0,1-1.831-.507v.052A4.052,4.052,0,0,0,11.6,19.9a4.055,4.055,0,0,1-1.825.07,4.038,4.038,0,0,0,3.776,2.806,8.157,8.157,0,0,1-5.984,1.674Z" transform="translate(0 0)" fill="#78cab7"/>
</svg>
