<svg id="_1" data-name="#1" xmlns="http://www.w3.org/2000/svg" xmlns:xlink="http://www.w3.org/1999/xlink" width="33.831" height="33.831" viewBox="0 0 33.831 33.831">
  <defs>
    <clipPath id="clip-path">
      <path id="icon_Color" data-name="icon Color" d="M16.915,33.831A16.916,16.916,0,1,1,33.831,16.915,16.935,16.935,0,0,1,16.915,33.831ZM12.354,14.043V17.51h1.938v9.809H18.37V17.51h2.753l.356-3.465H18.371V12.008a.833.833,0,0,1,.865-.945h2.193V7.7l-3.02-.012A3.826,3.826,0,0,0,14.292,11.8v2.241Z" transform="translate(0)" fill="#78cab7"/>
    </clipPath>
  </defs>
  <path id="icon_Color-2" data-name="icon Color" d="M16.915,33.831A16.916,16.916,0,1,1,33.831,16.915,16.935,16.935,0,0,1,16.915,33.831ZM12.354,14.043V17.51h1.938v9.809H18.37V17.51h2.753l.356-3.465H18.371V12.008a.833.833,0,0,1,.865-.945h2.193V7.7l-3.02-.012A3.826,3.826,0,0,0,14.292,11.8v2.241Z" transform="translate(0 0)" fill="#78cab7"/>
</svg>
